{"title":"MAD MAX FURY ROAD {2015} HDTS XVID AC3 MURD3R","uid":11977649,"size":1590029178,"categoryP":"video","categoryS":"movies","magnet":"?xt=urn:btih:64dc567e9ed8a4379040806b3ce22a01da164348&amp;dn=MAD+MAX+FURY+ROAD+%7B2015%7D+HDTS+XVID+AC3+MURD3R&amp;tr=udp%3A%2F%2Ftracker.openbittorrent.com%3A80&amp;tr=udp%3A%2F%2Fopen.demonii.com%3A1337&amp;tr=udp%3A%2F%2Ftracker.coppersurfer.tk%3A6969&amp;tr=udp%3A%2F%2Fexodus.desync.com%3A6969","seeders":4,"leechers":0,"uploader":"makintos13","files":14,"time":1433089684,"description":"Screens:\n  &lt;a href=&quot;\nhttp://imgmak.com/55&quot; rel=&quot;nofollow&quot; target=&quot;_NEW&quot;&gt;\nhttp://imgmak.com/55&lt;/a&gt;\n  &lt;a href=&quot;\nhttp://imgmak.com/51&quot; rel=&quot;nofollow&quot; target=&quot;_NEW&quot;&gt;\nhttp://imgmak.com/51&lt;/a&gt;\n  &lt;a href=&quot;\nhttp://imgmak.com/5U&quot; rel=&quot;nofollow&quot; target=&quot;_NEW&quot;&gt;\nhttp://imgmak.com/5U&lt;/a&gt;\n  &lt;a href=&quot;\nhttp://imgmak.com/53&quot; rel=&quot;nofollow&quot; target=&quot;_NEW&quot;&gt;\nhttp://imgmak.com/53&lt;/a&gt;\n  &lt;a href=&quot;\nhttp://imgmak.com/5G&quot; rel=&quot;nofollow&quot; target=&quot;_NEW&quot;&gt;\nhttp://imgmak.com/5G&lt;/a&gt;\n\nCover:\n  &lt;a href=&quot;\nhttp://imgmak.com/5H&quot; rel=&quot;nofollow&quot; target=&quot;_NEW&quot;&gt;\nhttp://imgmak.com/5H&lt;/a&gt;\n\n\nMAD MAX FURY ROAD {2015} HDTS XVID AC3 MURD3R\n\nFormat : AVI\nFormat/Info : Audio Video Interleave\nFile size : 1.48 GiB\nDuration : 1h 53mn\nOverall bit rate : 1 854 Kbps\nWriting library : VirtualDub build 35491/release\n\nVideo\nID : 0\nFormat : MPEG-4 Visual\nFormat profile : Advanced Simple@L5\nFormat settings, BVOP : 2\nFormat settings, QPel : No\nFormat settings, GMC : No warppoints\nFormat settings, Matrix : Default (H.263)\nMuxing mode : Packed bitstream\nCodec ID : XVID\nCodec ID/Hint : XviD\nDuration : 1h 53mn\nBit rate : 1 622 Kbps\nWidth : 720 pixels\nHeight : 384 pixels\nDisplay aspect ratio : 1.85:1\nFrame rate : 25.000 fps\nColor space : YUV\nChroma subsampling : 4:2:0\nBit depth : 8 bits\nScan type : Progressive\nCompression mode : Lossy\nBits/(Pixel*Frame) : 0.235\nStream size : 1.29 GiB (87%)\nWriting library : XviD 66\n\nAudio\nID : 1\nFormat : AC-3\nFormat/Info : Audio Coding 3\nMode extension : CM (complete main)\nFormat settings, Endianness : Big\nCodec ID : 2000\nDuration : 1h 53mn\nBit rate mode : Constant\nBit rate : 224 Kbps\nChannel(s) : 2 channels\nChannel positions : Front: L R\nSampling rate : 48.0 KHz\nBit depth : 16 bits\nCompression mode : Lossy\nStream size : 181 MiB (12%)\nAlignment : Split accross interleaves\nInterleave, duration : 40 ms (1.01 video frame)\nInterleave, preload duratio : 500 ms\n\n::::::::::::TPB NEW FORUM : https://pirates-forum.org/index.php/","torrent":{"xt":"urn:btih:64dc567e9ed8a4379040806b3ce22a01da164348","amp;dn":"MAD+MAX+FURY+ROAD+%7B2015%7D+HDTS+XVID+AC3+MURD3R","amp;tr":["udp%3A%2F%2Ftracker.openbittorrent.com%3A80","udp%3A%2F%2Fopen.demonii.com%3A1337","udp%3A%2F%2Ftracker.coppersurfer.tk%3A6969","udp%3A%2F%2Fexodus.desync.com%3A6969"],"infoHash":"64dc567e9ed8a4379040806b3ce22a01da164348","infoHashBuffer":{"type":"Buffer","data":[100,220,86,126,158,216,164,55,144,64,128,107,60,226,42,1,218,22,67,72]},"announce":[],"urlList":[]}}